<?xml version="1.0" encoding="UTF-8" standalone="no"?> <svg xmlns="http://www.w3.org/2000/svg" viewBox="0 0 32 32"><defs><style>.cls-1{fill:#2b6f3e;}.cls-2{fill:#4fb15c;}.cls-3{fill:#ffcd51;}.cls-4{fill:#fbb03b;}.cls-5{fill:#ffe96f;}.cls-6{fill:#fff;}.cls-7{fill:#ff9f54;}.cls-8{fill:#511d21;}.cls-9{fill:#f45356;}</style></defs><title>pineapple 5</title><g id="pineapple_5" data-name="pineapple 5"><path class="cls-1" d="M15.76,8a.55.55,0,0,1,0,.18L15,11.24a1,1,0,0,1-.7.72l-1.76.5a.84.84,0,0,1-.27,0,1,1,0,0,1-1-.71A7.59,7.59,0,0,0,10.1,9.45h0A12.1,12.1,0,0,0,7.4,6.8a1,1,0,0,1-.35-1.11A1,1,0,0,1,8,5h.1a11.81,11.81,0,0,1,7.27,2.13A1,1,0,0,1,15.76,8Z"/><path class="cls-1" d="M24.6,6.8a12.64,12.64,0,0,0-2.7,2.66l-.26.37-.12.2a6.94,6.94,0,0,0-.8,1.76,1,1,0,0,1-1,.71.84.84,0,0,1-.27,0L17.77,12h0a1,1,0,0,1-.7-.72l-.77-3.06a.55.55,0,0,1,0-.18,1,1,0,0,1,.4-.87,9.85,9.85,0,0,1,2.5-1.34l.22-.08a11.51,11.51,0,0,1,2.51-.58,14.78,14.78,0,0,1,2-.13H24a1,1,0,0,1,.94.69A1,1,0,0,1,24.6,6.8Z"/><path class="cls-2" d="M19.77,11.64A1,1,0,0,1,19,12h-.17a16.3,16.3,0,0,0-5.66,0,1,1,0,0,1-.94-.35,1,1,0,0,1-.17-1l.52-1.38.39-1,1-2.55,1.13-3a1,1,0,0,1,1.88,0L19,8.23l.27.71.09.23.55,1.48A1,1,0,0,1,19.77,11.64Z"/><path class="cls-3" d="M24.65,24.76a5,5,0,0,1-5,5.24h-7.3a5,5,0,0,1-5-5.23c0-.06,0-.13,0-.19l.2-2.42.08-.93.08-.94h0l0-.3h0L8,17.38l0-.46a2.17,2.17,0,0,1,0-.26,6.52,6.52,0,0,1,.11-1c0-.19.08-.38.13-.57l.06-.2a6.56,6.56,0,0,1,.23-.62,6.89,6.89,0,0,1,2.17-2.81A7,7,0,0,1,15,10h2a7,7,0,0,1,2.29.39,7.06,7.06,0,0,1,4.16,3.89,6.56,6.56,0,0,1,.23.62,1.21,1.21,0,0,1,.05.18A6.83,6.83,0,0,1,24,16.66c0,.11,0,.22,0,.34l0,.38.22,2.6,0,.31.08.94.08.93.2,2.42C24.64,24.64,24.65,24.7,24.65,24.76Z"/><path class="cls-4" d="M10,24.59l.66-.67A20,20,0,0,1,10,19a1,1,0,0,1-.7-.29L8,17.38l-.4,4.78.15.13Z"/><path class="cls-4" d="M10,16.55a36.64,36.64,0,0,1,.67-5.08,6.9,6.9,0,0,0-2.39,3.44L10,16.59Z"/><path class="cls-4" d="M9.29,26.71,7.36,24.78a5,5,0,0,0,5,5.22h2.87a8.45,8.45,0,0,1-3.8-4l-.71.71A1,1,0,0,1,9.29,26.71Z"/><path class="cls-5" d="M24.64,24.58l-.2-2.42-.15.13L22,24.59l-2.29-2.3a1,1,0,0,0-1.42,0L16,24.59l-2.29-2.3a1,1,0,0,0-1.42,0l-1.63,1.63A13.22,13.22,0,0,0,11.42,26L13,24.41l2.29,2.3a1,1,0,0,0,1.42,0L19,24.41l2.29,2.3a1,1,0,0,0,1.42,0l1.94-1.95C24.65,24.7,24.64,24.64,24.64,24.58Z"/><path class="cls-3" d="M10,24.59l-2.29-2.3-.15-.13-.2,2.42c0,.07,0,.14,0,.2l1.93,1.93a1,1,0,0,0,1.42,0l.71-.71a13.22,13.22,0,0,1-.76-2.08Z"/><path class="cls-5" d="M17.25,15.34,16,16.59l-1.25-1.25A3.93,3.93,0,0,1,13.6,17l1.69,1.69a1,1,0,0,0,1.42,0L18.4,17A3.93,3.93,0,0,1,17.25,15.34Z"/><path class="cls-5" d="M10,17.86q0,.55,0,1.14a1,1,0,0,0,.72-.29l.75-.76A3.41,3.41,0,0,1,11,18,4.17,4.17,0,0,1,10,17.86Z"/><path class="cls-5" d="M24,17c0-.11,0-.22,0-.34A4,4,0,0,1,21,18a3.41,3.41,0,0,1-.46-.05l.75.76a1,1,0,0,0,1.42,0L24,17.38Z"/><path class="cls-4" d="M19.71,14.29,22,16.59l1.68-1.69a6.56,6.56,0,0,0-.23-.62,7.06,7.06,0,0,0-4.16-3.89,3.93,3.93,0,0,0-2,4.95l1-1.05A1,1,0,0,1,19.71,14.29Z"/><path class="cls-4" d="M18.4,17a4,4,0,0,0,2.14.93L19,16.41Z"/><path class="cls-3" d="M24,16.66v-.08a5.64,5.64,0,0,0-.11-.92,6.49,6.49,0,0,0-.19-.76L22,16.59l-2.29-2.3a1,1,0,0,0-1.42,0l-1,1.05A3.93,3.93,0,0,0,18.4,17l.6-.61L20.54,18A3.41,3.41,0,0,0,21,18,4,4,0,0,0,24,16.66Z"/><path class="cls-4" d="M11.46,18A4,4,0,0,0,13.6,17l-.6-.61Z"/><path class="cls-4" d="M8.27,15.06l.05-.15L10,16.59l0,0,2.25-2.26a1,1,0,0,1,1.42,0l1,1.05a3.92,3.92,0,0,0-2.05-4.95,7,7,0,0,0-2,1.08,6.89,6.89,0,0,0-2.17,2.81,6.56,6.56,0,0,0-.23.62l-.06.2c-.05.19-.09.38-.13.57a.41.41,0,0,0,0,.11,1.85,1.85,0,0,1,0-.23A4.37,4.37,0,0,1,8.27,15.06Z"/><path class="cls-3" d="M14.75,15.34l-1-1.05a1,1,0,0,0-1.42,0L10,16.55c0,.43,0,.86,0,1.31A4.17,4.17,0,0,0,11,18a3.41,3.41,0,0,0,.46-.05L13,16.41l.6.61A3.93,3.93,0,0,0,14.75,15.34Z"/><path class="cls-3" d="M10,16.59,8.32,14.91l-.05.15a4.37,4.37,0,0,0-.12.49,1.85,1.85,0,0,0,0,.23,5,5,0,0,0-.09.77v.11a2.28,2.28,0,0,0,0,.26l0,.46,1.33,1.33A1,1,0,0,0,10,19q0-.59,0-1.14c0-.45,0-.88,0-1.31Z"/><circle class="cls-6" cx="21" cy="13" r="4"/><circle class="cls-7" cx="21" cy="13" r="3"/><circle class="cls-8" cx="21" cy="13" r="2"/><circle class="cls-6" cx="22" cy="12" r="1"/><circle class="cls-6" cx="11" cy="13" r="4"/><circle class="cls-7" cx="11" cy="13" r="3"/><circle class="cls-8" cx="11" cy="13" r="2"/><circle class="cls-6" cx="12" cy="12" r="1"/><path class="cls-4" d="M16,28a2.43,2.43,0,0,1-2.1-1.38A3.38,3.38,0,0,1,13.5,25,2.79,2.79,0,0,1,16,22a2.79,2.79,0,0,1,2.5,3,3.28,3.28,0,0,1-.39,1.59A2.44,2.44,0,0,1,16,28Z"/><path class="cls-8" d="M19,23a4.92,4.92,0,0,1-.4,2A2.93,2.93,0,0,1,16,27a2.93,2.93,0,0,1-2.6-2,4.92,4.92,0,0,1-.4-2c0-2.24,1.32-4,3-4S19,20.76,19,23Z"/><ellipse class="cls-9" cx="16" cy="25" rx="2.6" ry="2"/></g></svg>