<?xml version="1.0" encoding="UTF-8" standalone="no"?> <svg xmlns="http://www.w3.org/2000/svg" xmlns:xlink="http://www.w3.org/1999/xlink" x="0px" y="0px" width="48px" height="48px" viewBox="0 0 48 48"><g >
<path opacity="0.8" fill="#43A6DD" d="M24,31c-8.271,0-15-6.729-15-15S15.729,1,24,1s15,6.729,15,15S32.271,31,24,31z"/>
<path opacity="0.8" fill="#E86C60" d="M16,47C7.729,47,1,40.271,1,32s6.729-15,15-15s15,6.729,15,15S24.271,47,16,47z"/>
<path opacity="0.8" fill="#EFD358" d="M32,47c-8.271,0-15-6.729-15-15s6.729-15,15-15s15,6.729,15,15S40.271,47,32,47z"/>
</g></svg>