<?xml version="1.0" encoding="utf-8"?>
<!-- Generator: Adobe Illustrator 23.0.3, SVG Export Plug-In . SVG Version: 6.00 Build 0)  -->
<svg version="1.1" id="Layer" xmlns="http://www.w3.org/2000/svg" xmlns:xlink="http://www.w3.org/1999/xlink" x="0px" y="0px"
	 viewBox="0 0 512 512" style="enable-background:new 0 0 512 512;" xml:space="preserve">
<style type="text/css">
	.st0{fill:#1E2D58;}
	.st1{fill:#FECB02;}
</style>
<path class="st0" d="M80,352c8.8,0,16-7.2,16-16V128c0-17.6,14.4-32,32-32h256c17.6,0,32,14.4,32,32v256c0,17.6-14.4,32-32,32H176
	c-8.8,0-16,7.2-16,16s7.2,16,16,16h208c35.3,0,64-28.7,64-64V128c0-35.3-28.7-64-64-64H128c-35.3,0-64,28.7-64,64v208
	C64,344.8,71.2,352,80,352z"/>
<path class="st1" d="M164.7,347.3c3.1,3.1,7.2,4.7,11.3,4.7s8.2-1.6,11.3-4.7L320,214.6V264c0,8.8,7.2,16,16,16s16-7.2,16-16v-88
	c0-8.8-7.2-16-16-16h-88c-8.8,0-16,7.2-16,16s7.2,16,16,16h49.4L164.7,324.7C158.4,330.9,158.4,341.1,164.7,347.3L164.7,347.3z"/>
</svg>
