<?xml version="1.0" encoding="UTF-8" standalone="no"?> <svg xmlns="http://www.w3.org/2000/svg" viewBox="0 0 64 64"><defs><style>.cls-1{fill:#9af43b;}.cls-1,.cls-2,.cls-6{stroke:#54596e;stroke-linecap:round;stroke-linejoin:round;stroke-width:2px;}.cls-2{fill:#f4a14e;}.cls-3,.cls-5{fill:#54596e;}.cls-3{opacity:0.2;}.cls-4{fill:#fff35f;}.cls-6{fill:none;}</style></defs><title>flower</title><g id="flower"><path class="cls-1" d="M31,38S29.71,17,13,8c0,0-1.29,12,14.14,30"/><path class="cls-1" d="M31,38l4-2c7-24-3-34-3-34-7,8-6,24-6,24s.42,5.89,4.21,6.94"/><path class="cls-1" d="M34,28C43,9,52,8,52,8c0,12-15,28-15,28l6,4H22V38S12,31,12,24A20.36,20.36,0,0,1,26,37"/><path class="cls-1" d="M33,38c8-13,18-11,18-11-1,5-8,12-8,12l-1.64,1"/><path class="cls-2" d="M42.28,63H22.72a.83.83,0,0,1-.82-.72L19.13,40.94a.83.83,0,0,1,.82-.94H45.05a.83.83,0,0,1,.82.94L43.1,62.28A.83.83,0,0,1,42.28,63Z"/><path class="cls-3" d="M26.9,62.28,24.13,40.94a.83.83,0,0,1,.82-.94h-5a.83.83,0,0,0-.82.94L21.9,62.28a.83.83,0,0,0,.82.72h5A.83.83,0,0,1,26.9,62.28Z"/><circle class="cls-4" cx="26" cy="46" r="2"/><circle class="cls-4" cx="40" cy="46" r="2"/><circle class="cls-4" cx="33" cy="46" r="2"/><circle class="cls-5" cx="29" cy="52" r="1"/><circle class="cls-5" cx="40" cy="52" r="1"/><path class="cls-6" d="M31,55.64a5.19,5.19,0,0,0,7,0"/><line class="cls-6" x1="13" y1="63" x2="26" y2="63"/></g></svg>